<svg width="150" height="22" viewBox="0 0 150 22" fill="none" xmlns="http://www.w3.org/2000/svg">
<path d="M11 0.000244141L14.399 7.24104L22 8.40929L16.5 14.0423L17.798 22.0002L11 18.241L4.202 22.0002L5.5 14.0423L0 8.40929L7.601 7.24104L11 0.000244141Z" fill="#FCAF45"/>
<path d="M43 0.000244141L46.399 7.24104L54 8.40929L48.5 14.0423L49.798 22.0002L43 18.241L36.202 22.0002L37.5 14.0423L32 8.40929L39.601 7.24104L43 0.000244141Z" fill="#FCAF45"/>
<path d="M75 0.000244141L78.399 7.24104L86 8.40929L80.5 14.0423L81.798 22.0002L75 18.241L68.202 22.0002L69.5 14.0423L64 8.40929L71.601 7.24104L75 0.000244141Z" fill="#FCAF45"/>
<path d="M107 0.000244141L110.399 7.24104L118 8.40929L112.5 14.0423L113.798 22.0002L107 18.241L100.202 22.0002L101.5 14.0423L96 8.40929L103.601 7.24104L107 0.000244141Z" fill="#FCAF45"/>
<path d="M139 0.000244141L142.399 7.24104L150 8.40929L144.5 14.0423L145.798 22.0002L139 18.241L132.202 22.0002L133.5 14.0423L128 8.40929L135.601 7.24104L139 0.000244141Z" fill="#FCAF45"/>
</svg>
